<svg data-name="Layer 1" xmlns="http://www.w3.org/2000/svg" viewBox="0 0 93.59 122.88"><path d="M45.54 0c8.29 0 15.77 3.37 22.22 9 8.08 7 14.57 17.66 19 29.48a106.22 106.22 0 0 1 6.82 36.38c0 13-3 24.7-9.5 32.22-.86 1-1.71 1.88-2.58 2.7-8.83 8.43-21.28 12.75-33.65 13.09S23.08 119.53 14.39 112c-.85-.73-1.66-1.51-2.45-2.33C3.62 100.91 0 87.5 0 73a104.14 104.14 0 0 1 6.41-35c4.12-11.31 10.07-21.38 17.27-28.24C30.06 3.67 37.45 0 45.54 0Zm26.24 76.68a3.45 3.45 0 0 1 4-2.63 3.21 3.21 0 0 1 2.89 3.62 49.34 49.34 0 0 1-3.12 10.85 32.66 32.66 0 0 1-5.27 8.57 40.68 40.68 0 0 1-6.11 5.72 45.74 45.74 0 0 1-7.35 4.53 3.66 3.66 0 0 1-4.72-1.27 3 3 0 0 1 1.39-4.29 38.62 38.62 0 0 0 6.21-3.84 34.13 34.13 0 0 0 5.12-4.77A26.21 26.21 0 0 0 69 86.23a42.93 42.93 0 0 0 2.74-9.55ZM62.56 14c-5.09-4.42-10.82-7.07-17-7.07-5.85 0-11.42 2.86-16.39 7.6-6.46 6.1-11.83 15.25-15.61 25.57A97.9 97.9 0 0 0 7.57 73c0 12.94 3.06 24.75 10.08 32.1.61.64 1.26 1.26 1.94 1.86 7.2 6.26 17.59 9.29 28.06 9s21-3.91 28.39-11q1.17-1.11 2.13-2.22c5.4-6.2 7.85-16.42 7.85-28a99.92 99.92 0 0 0-6.4-34.18C75.54 29.83 69.71 20.19 62.56 14Z"/></svg>