<svg xmlns="http://www.w3.org/2000/svg" viewBox="0 0 122.88 98.08" style="enable-background:new 0 0 122.88 98.08" xml:space="preserve"><path d="M13.78 13.25V3.84a3.841 3.841 0 0 1 7.68 0v9.41h9.73V3.84a3.841 3.841 0 0 1 7.68 0v9.41h9.73V3.84a3.841 3.841 0 0 1 7.68 0v9.41h9.73V3.84a3.841 3.841 0 0 1 7.68 0v9.41h9.73V3.84a3.841 3.841 0 0 1 7.68 0v9.41h9.73V3.84a3.841 3.841 0 0 1 7.68 0v9.41h8.6c1.59 0 3.03.65 4.07 1.69a5.744 5.744 0 0 1 1.69 4.07v60.66c0 1.57-.65 3.01-1.69 4.06l.01.01a5.744 5.744 0 0 1-4.07 1.69h-8.6v8.82a3.841 3.841 0 0 1-7.68 0v-8.82h-9.73v8.82a3.841 3.841 0 0 1-7.68 0v-8.82H73.7v8.82a3.841 3.841 0 0 1-7.68 0v-8.82h-9.73v8.82a3.841 3.841 0 0 1-7.68 0v-8.82h-9.73v8.82a3.841 3.841 0 0 1-7.68 0v-8.82h-9.73v8.82a3.841 3.841 0 0 1-7.68 0v-8.82H5.75c-1.59 0-3.03-.65-4.07-1.69A5.814 5.814 0 0 1 0 79.67V19.01c0-1.59.65-3.03 1.69-4.07.12-.12.25-.23.38-.33a5.748 5.748 0 0 1 3.69-1.35h8.02v-.01zm101.42 7.68H7.68v56.81H115.2V20.93z"/></svg>