<svg data-name="Layer 1" xmlns="http://www.w3.org/2000/svg" viewBox="0 0 122.88 69.7"><path d="M102.26 45.6a11.88 11.88 0 1 0 11.87 11.87 11.88 11.88 0 0 0-11.87-11.87ZM34.13 31.26v3.52a.31.31 0 0 0 0 .1c.07 1.83 1.31 2.5 3 1.94a1 1 0 0 0 .25-.14c4.22-3.31 6.69-5.95 10.91-9.27l.06-.05a2 2 0 0 0 .75-2 2.76 2.76 0 0 0-1.1-1.48l-9.91-8.51C36.09 13.8 34 14.09 34 17v3.21h-9.59a1 1 0 0 0-1 1v9a1 1 0 0 0 1 1Zm-12 17.57a12.23 12.23 0 1 1-3.58 8.64 12.16 12.16 0 0 1 3.58-8.64Zm72.55-34.57-20.45-.1V6.74a6.72 6.72 0 0 0-1.86-4.63L72.25 2a6.74 6.74 0 0 0-4.77-2H6.74A6.76 6.76 0 0 0 0 6.74v47.18a7 7 0 0 0 2 4.84 6.62 6.62 0 0 0 4.76 2.08H13a2 2 0 0 0 0-4.06H6.74A2.58 2.58 0 0 1 4.9 56a3 3 0 0 1-.84-2V6.74a2.7 2.7 0 0 1 2.68-2.68h60.74a2.68 2.68 0 0 1 1.9.79l.08.08a2.68 2.68 0 0 1 .71 1.81v50H49.09a2 2 0 0 0 0 4.06H72.2a2 2 0 0 0 2-2v-2h13.25c.8-18.24 27-20.76 29.67 0h5.76l-.72-7.69C121 36 123.37 38.38 111.24 34l-9-3.45-7.56-16.29Zm-4.59 5-11.77-.1v11.41h17.75l-6-11.28ZM30.81 52.91a4.57 4.57 0 1 0 4.56 4.56 4.56 4.56 0 0 0-4.56-4.56Zm71.45 0a4.57 4.57 0 1 0 4.56 4.56 4.56 4.56 0 0 0-4.56-4.56Z" style="fill-rule:evenodd"/></svg>