<svg width="295" height="100" fill="none" xmlns="http://www.w3.org/2000/svg"><path d="M86.004 61.42c-3.78 0-6.7-.96-8.76-2.88-2.04-1.92-3.06-4.99-3.06-9.21 0-8.06 3.92-12.09 11.76-12.09 1.9 0 3.66.23 5.28.69 1.64.46 2.86.97 3.66 1.53v7.5h-7.2V44.8c0-.76-.17-1.32-.51-1.68-.34-.36-.85-.54-1.53-.54s-1.19.18-1.53.54c-.34.36-.51.92-.51 1.68v9.06c0 .76.17 1.32.51 1.68.34.36.85.54 1.53.54s1.19-.18 1.53-.54c.34-.36.51-.92.51-1.68v-2.43h7.2v7.77c-.82.56-2.04 1.07-3.66 1.53-1.6.46-3.34.69-5.22.69Zm32.03-5.34h1.2V61h-11.76v-4.92h1.8l-.48-2.4h-4.08l-.48 2.4h1.8V61h-10.26v-4.92h1.2l5.07-18.42h10.92l5.07 18.42Zm-12.66-5.58h2.76l-1.23-5.97h-.3l-1.23 5.97Zm33.586-5.58h-5.16v-2.34h-1.92v13.5h2.1V61h-12.6v-4.92h2.1v-13.5h-1.92v2.34h-5.16v-7.26h22.56v7.26Zm10.329 16.5c-1.92 0-3.74-.16-5.46-.48-1.7-.34-3.01-.72-3.93-1.14v-5.94h6.6c0 .62.14 1.07.42 1.35.28.28.79.42 1.53.42.62 0 1.06-.09 1.32-.27.28-.2.42-.49.42-.87 0-.32-.13-.59-.39-.81-.26-.24-.71-.48-1.35-.72l-2.58-.9c-2.22-.84-3.82-1.83-4.8-2.97-.96-1.14-1.44-2.68-1.44-4.62 0-2.36.77-4.15 2.31-5.37 1.56-1.24 4.15-1.86 7.77-1.86 1.74 0 3.37.18 4.89.54 1.54.34 2.78.8 3.72 1.38v5.37h-6c0-1-.62-1.5-1.86-1.5-.6 0-1.03.08-1.29.24-.24.14-.36.4-.36.78 0 .34.14.61.42.81.3.2.78.41 1.44.63l2.61.9c2.12.72 3.66 1.66 4.62 2.82.98 1.14 1.47 2.64 1.47 4.5 0 2.54-.86 4.46-2.58 5.76-1.7 1.3-4.2 1.95-7.5 1.95Zm20.815 0c-3.22 0-5.7-.59-7.44-1.77-1.72-1.2-2.58-2.85-2.58-4.95 0-1.4.42-2.61 1.26-3.63a7.81 7.81 0 0 1 3.15-2.34c-1.12-.8-1.96-1.62-2.52-2.46-.56-.84-.84-1.82-.84-2.94 0-1.28.41-2.38 1.23-3.3.82-.92 1.95-1.61 3.39-2.07 1.46-.48 3.12-.72 4.98-.72 1.88 0 3.6.23 5.16.69 1.56.46 2.72.97 3.48 1.53v5.76h-6.3v-.54c0-.72-.17-1.25-.51-1.59-.34-.34-.85-.51-1.53-.51-1.26 0-1.89.49-1.89 1.47 0 .38.15.74.45 1.08.32.34.82.77 1.5 1.29l4.89 3.69c.08-.42.12-.9.12-1.44v-.54h7.23v5.01h-1.74l-.27.99 2.7 2.04-3.66 4.83-2.19-1.68c-2 1.4-4.69 2.1-8.07 2.1Zm.78-5.34c.98 0 1.78-.18 2.4-.54l-3.81-2.94c-.38.18-.68.43-.9.75-.22.3-.33.64-.33 1.02 0 .6.22 1.04.66 1.32.46.26 1.12.39 1.98.39Zm14.163 0h1.5V42.61h-1.5v-4.95h12.18c3.34 0 5.99.92 7.95 2.76 1.98 1.82 2.97 4.79 2.97 8.91s-.99 7.1-2.97 8.94c-1.96 1.82-4.61 2.73-7.95 2.73h-12.18v-4.92Zm11.64 0c.68 0 1.19-.18 1.53-.54.34-.36.51-.92.51-1.68V44.8c0-1.48-.68-2.22-2.04-2.22h-1.74v13.5h1.74Zm23.752 5.34c-3.66 0-6.49-.96-8.49-2.88-1.98-1.92-2.97-4.99-2.97-9.21 0-4.22.99-7.29 2.97-9.21 2-1.92 4.83-2.88 8.49-2.88s6.48.96 8.46 2.88c2 1.92 3 4.99 3 9.21 0 4.22-1 7.29-3 9.21-1.98 1.92-4.8 2.88-8.46 2.88Zm0-5.34c.68 0 1.19-.18 1.53-.54.34-.36.51-.92.51-1.68V44.8c0-.76-.17-1.32-.51-1.68-.34-.36-.85-.54-1.53-.54s-1.19.18-1.53.54c-.34.36-.51.92-.51 1.68v9.06c0 .78.17 1.35.51 1.71.34.34.85.51 1.53.51Zm35.099-2.58h-1.5v6c-.88.5-2.17.95-3.87 1.35-1.68.38-3.5.57-5.46.57-3.74 0-6.67-.98-8.79-2.94-2.12-1.98-3.18-5.03-3.18-9.15 0-4.22 1.05-7.29 3.15-9.21 2.12-1.92 5.14-2.88 9.06-2.88 1.9 0 3.68.2 5.34.6 1.66.4 2.91.85 3.75 1.35v7.17h-7.5v-1.41c0-.84-.18-1.44-.54-1.8-.34-.38-.89-.57-1.65-.57-.76 0-1.32.19-1.68.57-.34.36-.51.96-.51 1.8v8.76c0 .84.17 1.45.51 1.83.36.36.92.54 1.68.54.76 0 1.31-.18 1.65-.54.36-.38.54-.99.54-1.83v-.21h-1.62v-4.47h10.62v4.47Zm10.147 7.92c-1.92 0-3.74-.16-5.46-.48-1.7-.34-3.01-.72-3.93-1.14v-5.94h6.6c0 .62.14 1.07.42 1.35.28.28.79.42 1.53.42.62 0 1.06-.09 1.32-.27.28-.2.42-.49.42-.87 0-.32-.13-.59-.39-.81-.26-.24-.71-.48-1.35-.72l-2.58-.9c-2.22-.84-3.82-1.83-4.8-2.97-.96-1.14-1.44-2.68-1.44-4.62 0-2.36.77-4.15 2.31-5.37 1.56-1.24 4.15-1.86 7.77-1.86 1.74 0 3.37.18 4.89.54 1.54.34 2.78.8 3.72 1.38v5.37h-6c0-1-.62-1.5-1.86-1.5-.6 0-1.03.08-1.29.24-.24.14-.36.4-.36.78 0 .34.14.61.42.81.3.2.78.41 1.44.63l2.61.9c2.12.72 3.66 1.66 4.62 2.82.98 1.14 1.47 2.64 1.47 4.5 0 2.54-.86 4.46-2.58 5.76-1.7 1.3-4.2 1.95-7.5 1.95ZM41.78 67.28c1.013 3.521-3.297 6.32-6.819 7.334-3.521 1.014-7.651-1.633-7.963-5.38-1.014-3.52 5.751-20.069 9.273-21.083 3.521-1.014 4.494 15.607 5.508 19.129Z" fill="#fff"/><path d="M41.57 67.34c1.013 3.522 6.506 3.497 10.028 2.483 3.521-1.014 5.611-5.452 3.883-8.79-1.014-3.522-15.899-13.836-19.42-12.821-3.522 1.014 4.494 15.607 5.508 19.128Z" fill="#fff"/><path d="M47.2 69.17c.634 2.2-2.775.51-4.732 1.073-1.956.564-3.49 3.677-4.123 1.478s1.07-4.911 3.027-5.475c1.956-.563 5.196.726 5.829 2.925Z" fill="#fff"/><ellipse cx="41.597" cy="35.045" rx="7.004" ry="8.847" transform="rotate(-11.265 41.597 35.045)" fill="#fff"/><ellipse cx="24.695" cy="39.761" rx="7.004" ry="8.847" transform="rotate(-20.862 24.695 39.761)" fill="#fff"/><ellipse cx="20.137" cy="56.99" rx="5.898" ry="7.373" transform="rotate(-20.865 20.137 56.99)" fill="#fff"/><ellipse cx="55.225" cy="47.383" rx="5.898" ry="7.373" transform="rotate(-11.265 55.225 47.383)" fill="#fff"/></svg>