<svg width="24" height="24" viewBox="0 0 24 24" fill="none" xmlns="http://www.w3.org/2000/svg">
<path d="M14.1702 17.0584C14.6704 18.205 13.3363 19.3443 12.1897 19.8446C11.0432 20.3448 9.52739 19.6333 9.25485 18.3793C8.7546 17.2327 10.3063 11.3306 11.4528 10.8304C12.5994 10.3301 13.6699 15.9119 14.1702 17.0584Z" fill="black"/>
<path d="M14.1018 17.0883C14.602 18.2348 16.4599 17.9815 17.6065 17.4812C18.7531 16.981 19.2624 15.3858 18.5285 14.3331C18.0283 13.1866 12.531 10.36 11.3844 10.8602C10.2379 11.3605 13.6015 15.9417 14.1018 17.0883Z" fill="black"/>
<path d="M16.0894 17.4567C16.4018 18.1727 15.1725 17.7527 14.5355 18.0306C13.8986 18.3085 13.5184 19.4307 13.206 18.7147C12.8936 17.9987 13.3492 17.0048 13.9862 16.7269C14.6232 16.449 15.777 16.7407 16.0894 17.4567Z" fill="black"/>
<ellipse cx="12.6709" cy="6.1573" rx="2.39085" ry="3.02002" transform="rotate(-18.7719 12.6709 6.1573)" fill="black"/>
<ellipse cx="7.16118" cy="8.50732" rx="2.39085" ry="3.02002" transform="rotate(-28.3693 7.16118 8.50732)" fill="black"/>
<ellipse cx="6.38688" cy="14.5412" rx="2.01335" ry="2.51668" transform="rotate(-28.3719 6.38688 14.5412)" fill="black"/>
<ellipse cx="17.8331" cy="9.72504" rx="2.01335" ry="2.51668" transform="rotate(-18.7719 17.8331 9.72504)" fill="black"/>
</svg>
