<svg xmlns="http://www.w3.org/2000/svg" viewBox="0 0 122.88 116.72" style="enable-background:new 0 0 122.88 116.72" xml:space="preserve"><path d="M71.91 21.68v.02c7.21 0 13.88 2.31 19.32 6.21L98 20.98l-10.19-9.47L122.88 0l-9.05 35.78-10.02-9.53-6.6 7.21c4.84 5.75 7.74 13.17 7.74 21.28h.02v.01h-.02c0 9.14-3.69 17.41-9.67 23.38C89.3 84.1 81.04 87.8 71.9 87.8v.01-.01c-7.48 0-14.36-2.48-19.89-6.65-4.31 3.1-9.41 5.18-14.94 5.89V97.3h14.55c2.34 0 4.23 1.9 4.23 4.23 0 2.34-1.9 4.24-4.23 4.24H37.08v7.51c0 1.9-1.89 3.43-4.23 3.43-2.34 0-4.24-1.54-4.24-3.43v-7.51H14.06c-2.34 0-4.23-1.9-4.23-4.24 0-2.34 1.9-4.23 4.23-4.23h14.55V87.04a32.788 32.788 0 0 1-18.99-9.33 32.729 32.729 0 0 1-9.6-23.22H0v-.01h.02c0-9.08 3.67-17.28 9.6-23.22 5.93-5.93 14.14-9.6 23.21-9.6v-.02h.01v.02c7.21 0 13.95 2.42 19.42 6.48a32.973 32.973 0 0 1 19.65-6.45v-.01zM45.86 75.1c-4.38-5.61-7-12.66-7-20.35h-.01v-.01h.01c0-7.84 2.73-15.04 7.27-20.7a24.262 24.262 0 0 0-13.28-3.94v.02h-.01v-.02c-6.71 0-12.81 2.73-17.23 7.15S8.46 47.76 8.46 54.48h.01v.01h-.02c0 6.72 2.73 12.81 7.15 17.23s10.51 7.16 17.23 7.16v-.02h.01v.02c4.78 0 9.25-1.39 13.02-3.78zM58.5 34.19c4.47 5.61 7.16 12.68 7.16 20.3h.02v.01h-.02c0 7.86-2.75 15.06-7.33 20.69a24.36 24.36 0 0 0 13.58 4.12v-.02.02c6.76 0 12.89-2.75 17.35-7.21 4.45-4.45 7.21-10.58 7.21-17.35h-.02v-.01h.02c0-6.76-2.76-12.9-7.2-17.34-4.46-4.45-10.59-7.21-17.36-7.21v.02-.02c-4.95 0-9.55 1.47-13.41 4zm-6.32 35.14a24.24 24.24 0 0 0 5.05-14.84h-.02v-.01h.02c0-5.46-1.81-10.52-4.86-14.59a24.406 24.406 0 0 0-5.02 14.84h.02v.01h-.02c0 5.47 1.8 10.51 4.83 14.59z"/></svg>