<svg xmlns="http://www.w3.org/2000/svg" viewBox="0 0 122.22 122.88" style="enable-background:new 0 0 122.22 122.88" xml:space="preserve"><path d="m50.19 45.72 13.25 13.25c1.1 1.1 1.1 2.9 0 4s-2.9 1.1-4 0L46.19 49.72l-5.46 5.46 13.25 13.25c1.1 1.1 1.1 2.9 0 4s-2.9 1.1-4 0L36.73 59.19l-5.46 5.46L44.52 77.9c1.1 1.1 1.1 2.9 0 4s-2.9 1.1-4 0L27.27 68.65l-5.46 5.46 13.25 13.25c1.1 1.1 1.1 2.9 0 4s-2.9 1.1-4 0L17.81 78.11l-.93.93c-2.49 2.49-3.73 5.77-3.73 9.05 0 3.28 1.24 6.57 3.73 9.05l3.71 3.71c.31.14.6.33.86.59.25.26.45.55.59.86l4.4 4.4c2.17 2.17 5.03 3.25 7.9 3.25s5.73-1.09 7.9-3.25l42.24-42.24-26.5-26.5-7.79 7.76zm10.12-13.61 2.72 2.72 15.19-15.19c-1.93-2.22-2.9-5-2.9-7.78 0-3.04 1.16-6.08 3.47-8.39C81.1 1.16 84.15 0 87.19 0s6.08 1.16 8.39 3.47l23.18 23.18c2.3 2.3 3.45 5.35 3.45 8.39h.01c0 3.04-1.16 6.08-3.47 8.39a11.834 11.834 0 0 1-8.39 3.47c-2.61 0-5.21-.85-7.36-2.55L87.78 59.58l2.53 2.53c.2.2.36.43.48.67l5.66 5.66c1.1 1.1 1.1 2.9 0 4s-2.9 1.1-4 0l-4.48-4.48-42.24 42.24a16.072 16.072 0 0 1-11.4 4.71c-4.13 0-8.26-1.57-11.4-4.71l-3.12-3.12-14.98 14.97c-1.1 1.1-2.9 1.1-4 0s-1.1-2.9 0-4l14.98-14.98-2.43-2.43c-3.45-3.45-5.18-8-5.18-12.55 0-4.55 1.73-9.1 5.18-12.55l41.08-41.08-4.02-4.02c-1.1-1.1-1.1-2.9 0-4s2.9-1.1 4 0l5.2 5.2c.24.11.47.27.67.47zm53.95-.96L91.08 7.97a5.48 5.48 0 0 0-3.89-1.6c-1.41 0-2.82.53-3.89 1.6a5.48 5.48 0 0 0-1.6 3.89c0 1.41.53 2.82 1.6 3.89l23.18 23.18a5.48 5.48 0 0 0 3.89 1.6c1.41 0 2.82-.53 3.89-1.6a5.48 5.48 0 0 0 1.6-3.89h.01c0-1.41-.54-2.82-1.61-3.89zm-15.97 8.91L82.55 24.32 68.12 38.75l15.74 15.74 14.43-14.43z"/></svg>